<svg id="Layer_1" data-name="Layer 1" xmlns="http://www.w3.org/2000/svg" width="389.43" height="81.59" viewBox="0 0 389.43 81.59"><defs><style>.cls-1,.cls-2{fill:#795b51;stroke:#000;stroke-width:4px;}.cls-2{stroke-linecap:round;stroke-linejoin:round;}</style></defs><polygon class="cls-1" points="2 77.64 2 78.06 97.12 78.06 97.12 18.19 2 18.19 2 18.61 24.52 48.13 2 77.64"/><polygon class="cls-1" points="387.43 17.09 387.43 16.66 290.78 16.66 290.78 79.59 387.43 79.59 387.43 79.16 363.94 48.13 387.43 17.09"/><polygon class="cls-2" points="85.81 16.54 85.56 16.35 66.27 64.92 98.26 78.09 123.26 44.04 123.01 43.86 98.33 38.47 85.81 16.54"/><polygon class="cls-2" points="301.74 17.44 301.99 17.26 321.28 65.83 289.29 78.99 264.28 44.95 264.54 44.76 289.21 39.38 301.74 17.44"/><rect class="cls-1" x="66.27" y="2" width="255.37" height="62.93"/></svg>